<svg xmlns="http://www.w3.org/2000/svg" xml:space="preserve" width="2048" height="2048" style="shape-rendering:geometricPrecision;text-rendering:geometricPrecision;image-rendering:optimizeQuality;fill-rule:evenodd;clip-rule:evenodd"><defs><style>.fil1{fill:none}.fil2{fill:#5d4037}</style></defs><g id="Layer_x0020_1"><path d="M1024 255.999c424.155 0 768.001 343.845 768.001 768.001 0 424.155-343.845 768.001-768.001 768.001-424.155 0-768.001-343.845-768.001-768.001 0-424.155 343.845-768.001 768.001-768.001z" style="fill:#ffd54f"/><path class="fil1" d="M0 0h2048v2048H0z"/><path class="fil1" d="M255.999 255.999h1536v1536h-1536z"/><path class="fil2" d="M678.429 1463.43c52.787-475.258 660.787-475.258 704.004 0-115.586-288.254-491.217-389.166-704.004 0zM1307.19 671.999c44.184 0 80 35.817 80 80 0 44.185-35.816 80.002-80 80.002s-80-35.817-80-80.001c0-44.184 35.816-80.001 80-80.001zM740.807 671.999c44.184 0 80 35.817 80 80 0 44.185-35.816 80.002-80 80.002s-80-35.817-80-80.001c0-44.184 35.816-80.001 80-80.001z"/></g></svg>